<?xml version="1.0" encoding="utf-8"?>
<svg version="1.1" xmlns="http://www.w3.org/2000/svg" xmlns:xlink="http://www.w3.org/1999/xlink" x="0px" y="0px"
	 viewBox="0 0 24 24" style="enable-background:new 0 0 24 24;" xml:space="preserve">
<path d="M21.6,11.5L12.9,20.1c-2.1,2.1-5.5,2.1-7.6,0c-2.1-2.1-2.1-5.5,0-7.6l8.7-8.7c1.4-1.4,3.6-1.4,5,0c1.4,1.4,1.4,3.6,0,5
	l-8.5,8.5c-0.7,0.7-1.7,0.7-2.4,0c-0.7-0.7-0.7-1.7,0-2.4l7.4-7.4c0.4-0.4,0.4-1,0-1.4c-0.4-0.4-1-0.4-1.4,0l-7.4,7.4
	c-1.4,1.4-1.4,3.6,0,5c1.4,1.4,3.6,1.4,5,0l8.5-8.5c2.1-2.1,2.1-5.6,0-7.7c-2.1-2.1-5.6-2.1-7.7,0L4.3,12.1c-2.8,2.8-2.8,7.4,0,10.2
	c2.8,2.8,7.4,2.8,10.2,0l8.7-8.7c0.4-0.4,0.4-1,0-1.4C22.7,11.1,22,11.1,21.6,11.5z"/>
</svg>
